<svg width="559" height="593" viewBox="0 0 559 593" fill="none" xmlns="http://www.w3.org/2000/svg">
<path d="M283.499 588.221C258.344 579.771 241.091 571.647 213.581 555.296C197.655 545.829 183.949 536.829 129.678 500.196C104.108 482.935 91.4805 476.436 78.7826 473.998C71.6388 472.627 70.2283 472.07 71.2826 471.038C71.9967 470.339 78.656 466.217 86.081 461.877C118.033 443.201 139.007 427.568 150.953 413.524C158.488 404.665 158.5 404.649 167.03 392.746C176.081 380.115 180.204 375.984 185.275 374.464C191.742 372.527 192.082 374.362 186.824 382.831C180.758 392.601 179.829 396.251 181.637 403.196C184.314 413.473 192.04 426.515 212.557 455.388C258.597 520.181 278.857 551.21 292.271 577.473C296.017 584.806 299.081 591.218 299.081 591.723C299.081 593.241 297.155 592.808 283.499 588.221ZM375.688 590.059C375.354 589.189 375.084 584.351 375.088 579.309C375.093 572.296 375.915 566.731 378.581 555.641C382.001 541.413 382.719 536.641 381.439 536.641C380.375 536.641 362.979 543.655 358.631 545.836C347.559 551.393 336.832 563.71 331.503 576.988C330.433 579.655 329.132 581.905 328.612 581.988C328.091 582.072 326.941 578.541 326.056 574.141C324.259 565.211 323.583 563.7 317.557 555.141C315.233 551.841 312.549 547.601 311.592 545.719C309.99 542.568 309.769 542.45 308.802 544.219C306.277 548.839 304.081 548.119 304.081 542.671C304.081 535.032 298.778 522.692 292.82 516.466C292.123 515.737 290.058 513.228 288.233 510.891C286.407 508.553 284.564 506.641 284.136 506.641C283.709 506.641 283.097 508.856 282.777 511.564C282.163 516.747 280.235 520.859 278.665 520.335C278.152 520.164 276.91 517.576 275.904 514.583C272.026 503.038 265.73 493.261 255.013 482.141C247.397 474.238 239.738 463.106 238.487 458.12C237.559 454.424 235.956 455.535 234.067 461.183L232.421 466.102L227.723 461.128C219.991 452.943 218.546 448.985 218.782 436.641L218.984 426.141L217.014 428.641C215.93 430.016 214.509 433.053 213.855 435.391C213.201 437.728 212.359 439.641 211.984 439.641C210.898 439.641 207.173 431.091 205.559 424.894C204.746 421.774 204.081 416.145 204.081 412.385V405.55L200.581 406.207C196.889 406.899 195.991 405.79 198.536 403.678C200.826 401.778 205.081 393.998 205.081 391.713C205.081 388.897 202.545 389.073 198.899 392.141C197.265 393.516 195.512 394.641 195.004 394.641C193.235 394.641 194.099 386.639 196.581 380.044C197.956 376.391 199.081 371.656 199.081 369.522V365.641H194.426C190.054 365.641 189.868 365.534 191.356 363.889C193.96 361.012 194.846 357.578 196.611 343.524C198.321 329.911 200.388 322.578 205.993 310.247C207.717 306.455 208.846 303.08 208.504 302.747C206.828 301.115 189.335 326.308 186.581 334.319C185.96 336.125 185.179 337.876 184.846 338.209C183.724 339.331 181.104 334.054 179.443 327.325C178.536 323.649 177.267 320.641 176.623 320.641C175.979 320.641 173.935 322.666 172.081 325.141C170.227 327.616 168.201 329.641 167.58 329.641C165.63 329.641 162.863 322.454 161.613 314.141L160.411 306.141L157.496 310.859C155.893 313.454 154.288 315.592 153.929 315.609C152.694 315.669 151.013 309.134 150.401 301.895C150.064 297.905 149.501 294.641 149.15 294.641C147.292 294.641 144.62 301.82 144.127 308.14L143.581 315.141L141.993 312.141C130.024 289.528 127.855 282.519 129.863 272.944C130.517 269.828 130.848 267.075 130.6 266.826C130.351 266.578 128.539 267.788 126.571 269.515C122.665 272.945 112.064 278.641 109.587 278.641C108.21 278.641 108.2 278.387 109.501 276.391C110.308 275.153 112.115 270.501 113.517 266.052C114.919 261.604 117.387 255.997 119.002 253.592C120.617 251.187 121.762 248.934 121.546 248.584C121.33 248.235 115.625 247.652 108.867 247.288C70.9109 245.244 32.0208 234.076 13.581 219.923C0.282895 209.717 -3.2326 195.514 4.12347 181.712C19.1068 153.601 66.7226 129.042 149.723 106.616L172.865 100.363L178.08 79.7521C180.948 68.4158 183.915 57.9386 184.673 56.4694C185.431 55.0003 187.462 52.7933 189.187 51.565C194.989 47.4334 232.462 29.0736 245.581 23.935C276.389 11.8672 318.863 0.61346 333.441 0.65539C344.772 0.68799 358.684 6.09078 371.556 15.4569C378.188 20.2833 393.647 34.2204 400.286 41.3586C409.329 51.0829 410.072 51.7641 411.004 51.1885C411.502 50.8805 413.109 45.5688 414.575 39.3846C416.041 33.2004 417.904 27.1066 418.715 25.8429C421.325 21.7764 426.048 19.6484 432.474 19.6443C438.173 19.6403 438.523 19.7967 443.113 24.3906C450.864 32.1475 451.233 34.2254 452.215 75.6406C452.677 95.1656 453.399 114.066 453.819 117.641L454.581 124.141L465.581 127.939C484.6 134.507 509.765 140.467 538.081 145.108C556.655 148.152 558.022 148.556 558.681 151.184C559.365 153.91 553.588 165.454 547.557 173.41C542.518 180.06 531.583 191.105 525.081 196.114C506.495 210.434 477.507 224.563 457.273 229.165C453.318 230.065 450.095 231.102 450.113 231.471C450.13 231.839 450.805 233.014 451.613 234.082C455.642 239.409 451.695 251.775 445.144 254.348L441.361 255.834L441.471 267.487C441.563 277.222 441.106 281.056 438.698 290.772C436.746 298.643 436.025 303.528 436.466 305.879C437.525 311.526 443.41 319.473 452.48 327.505C455.949 330.577 456.142 331.008 454.694 332.456C453.246 333.904 452.527 333.848 446.425 331.811C442.749 330.584 439.417 329.931 439.02 330.36C437.649 331.842 440.767 340.594 444.668 346.213C455.083 361.213 454.498 359.686 455.135 373.542C455.827 388.597 456.556 390.283 465.281 397.017C468.757 399.699 473.013 403.749 474.741 406.017C478.036 410.344 482.367 419.873 483.546 425.391C484.136 428.153 483.957 428.641 482.355 428.641C481.318 428.641 478.945 427.516 477.081 426.141C475.217 424.766 473.33 423.641 472.887 423.641C471.466 423.641 472.066 428.01 474.103 432.5C475.836 436.32 476.881 444.641 475.626 444.641C475.376 444.641 474.014 443.482 472.598 442.067C471.182 440.651 469.474 439.676 468.803 439.9C466.316 440.727 466.992 444.175 471.474 453.538C476.488 464.011 478.615 472.839 477.638 479.114C477.293 481.329 475.672 487.416 474.036 492.641C472.399 497.866 470.597 504.053 470.032 506.391C469.467 508.728 468.684 510.634 468.292 510.626C466.972 510.599 461.737 500.184 460.104 494.336C459.213 491.143 458.055 488.549 457.532 488.571C457.009 488.593 456.303 493.23 455.963 498.876C455.582 505.191 454.485 511.814 453.111 516.09C451.142 522.215 450.008 523.89 443.556 530.197C437.849 535.776 435.987 538.321 435.106 541.747C433.756 546.998 427.099 560.641 425.886 560.641C425.416 560.641 424.593 559.489 424.058 558.08C422.964 555.203 421.891 555.525 418.283 559.812C417.007 561.329 411.252 564.871 405.496 567.682C394.421 573.091 384.948 580.722 380.435 587.872C377.855 591.958 376.633 592.521 375.688 590.059Z" fill="#E2AC2B"/>
</svg>

